<?xml version="1.0" encoding="iso-8859-1"?>
<!-- Generator: Adobe Illustrator 19.1.0, SVG Export Plug-In . SVG Version: 6.00 Build 0)  -->
<svg version="1.1" id="Capa_1" xmlns="http://www.w3.org/2000/svg" xmlns:xlink="http://www.w3.org/1999/xlink" x="0px" y="0px"
	 viewBox="0 0 444.179 444.179" style="enable-background:new 0 0 444.179 444.179;" xml:space="preserve">
<g>
	<path style="fill:#45CE83;" d="M222.089,61.377L222.089,61.377c-49.506-49.506-129.772-49.506-179.278,0l0,0
		c-49.506,49.506-49.506,129.771,0,179.278l0,0l179.278,179.278l179.278-179.278l0,0c49.506-49.506,49.506-129.771,0-179.278l0,0
		C351.861,11.87,271.596,11.87,222.089,61.377L222.089,61.377z"/>
	<g>
		<path style="fill:#FFFFFF;" d="M199.199,93.128c-1.792,0-3.583-0.684-4.95-2.05c-5.592-5.592-11.875-10.369-18.674-14.195
			c-3.369-1.896-4.563-6.165-2.667-9.534c1.896-3.369,6.166-4.562,9.534-2.667c7.91,4.452,15.212,10.002,21.706,16.496
			c2.734,2.733,2.734,7.166,0,9.899C202.782,92.445,200.991,93.128,199.199,93.128z"/>
		<path style="fill:#FFFFFF;" d="M68.039,93.128c-1.792,0-3.583-0.684-4.95-2.05c-2.734-2.733-2.734-7.166,0-9.899
			c18.839-18.839,43.887-29.214,70.53-29.214c6.769,0,13.529,0.678,20.095,2.015c3.788,0.772,6.234,4.468,5.462,8.256
			c-0.772,3.789-4.47,6.231-8.256,5.462c-5.648-1.15-11.469-1.734-17.301-1.734c-22.903,0-44.436,8.919-60.63,25.113
			C71.622,92.444,69.83,93.128,68.039,93.128z"/>
		<path style="fill:#FFFFFF;" d="M400.996,150.49c-3.579,0-6.631-2.73-6.963-6.364l-0.01-0.107
			c-0.325-3.652-0.89-7.306-1.682-10.875c-0.837-3.774,1.544-7.513,5.318-8.35c3.771-0.838,7.513,1.543,8.35,5.318
			c0.922,4.158,1.581,8.414,1.958,12.65l0.008,0.091c0.352,3.85-2.484,7.256-6.334,7.608
			C401.425,150.48,401.21,150.49,400.996,150.49z"/>
		<path style="fill:#FFFFFF;" d="M389.595,113.473c-2.454,0-4.834-1.292-6.117-3.586c-3.858-6.902-8.644-13.229-14.224-18.807
			c-16.195-16.194-37.725-25.112-60.626-25.112c-3.866,0-7-3.134-7-7s3.134-7,7-7c26.64,0,51.686,10.374,70.524,29.211
			c6.492,6.488,12.06,13.85,16.547,21.878c1.886,3.375,0.68,7.639-2.695,9.525C391.923,113.186,390.75,113.473,389.595,113.473z"/>
	</g>
	<polygon style="fill:#F4E84A;" points="378.159,201.197 222.089,104.477 66.02,201.197 222.089,297.916 	"/>
	<path style="fill:#46B9CC;" d="M274.895,201.192c0,7.73-1.66,15.07-4.65,21.69c-1.48,3.3-3.3,6.42-5.4,9.31
		c-9.6,13.22-25.17,21.81-42.76,21.81c-29.16,0-52.8-23.64-52.8-52.81c0-9.08,2.29-17.62,6.32-25.08c1.72-3.18,3.76-6.16,6.07-8.9
		c9.68-11.51,24.19-18.82,40.41-18.82C251.255,148.392,274.895,172.032,274.895,201.192z"/>
	<path style="fill:#FFFFFF;" d="M197.315,165.562c-5.36,0-10.6,0.57-15.64,1.65c-2.31,2.74-4.35,5.72-6.07,8.9
		c6.82-2.3,14.12-3.55,21.71-3.55c34.68,0,63.37,26.07,67.53,59.63c2.1-2.89,3.92-6.01,5.4-9.31
		C262.265,190.032,232.595,165.562,197.315,165.562z"/>
	<g>
		<path style="fill:#F4E84A;" d="M222.094,67.26c-1.579,0-3.13-0.64-4.239-1.76c-1.12-1.11-1.761-2.66-1.761-4.24
			c0-1.58,0.641-3.13,1.761-4.25c1.109-1.11,2.66-1.75,4.239-1.75c1.58,0,3.12,0.64,4.24,1.75c1.12,1.12,1.76,2.67,1.76,4.25
			c0,1.58-0.64,3.13-1.76,4.24C225.214,66.62,223.674,67.26,222.094,67.26z"/>
		<path style="fill:#F4E84A;" d="M205.025,411.23c-2.34-2.34-2.34-6.14,0-8.48l0,0c2.34-2.35,6.14-2.35,8.479,0l0,0
			c2.351,2.34,2.351,6.14,0,8.48l0,0c-1.17,1.17-2.699,1.76-4.239,1.76l0,0C207.735,412.99,206.194,412.4,205.025,411.23z
			 M192.225,398.43c-2.351-2.35-2.351-6.14,0-8.49l0,0c2.34-2.34,6.14-2.34,8.479,0l0,0c2.351,2.35,2.351,6.14,0,8.49l0,0
			c-1.17,1.17-2.7,1.76-4.24,1.76l0,0C194.924,400.19,193.395,399.6,192.225,398.43z M179.424,385.63c-2.35-2.35-2.35-6.15,0-8.49
			l0,0c2.341-2.34,6.141-2.34,8.48,0l0,0c2.34,2.34,2.34,6.14,0,8.49l0,0c-1.17,1.17-2.71,1.75-4.24,1.75l0,0
			C182.124,387.38,180.594,386.8,179.424,385.63z M166.614,372.82c-2.34-2.34-2.34-6.14,0-8.48l0,0c2.35-2.35,6.14-2.35,8.49,0l0,0
			c2.34,2.34,2.34,6.14,0,8.48l0,0c-1.17,1.17-2.71,1.76-4.25,1.76l0,0C169.324,374.58,167.784,373.99,166.614,372.82z
			 M153.815,360.02c-2.351-2.34-2.351-6.14,0-8.48l0,0c2.34-2.35,6.14-2.35,8.479,0l0,0c2.351,2.34,2.351,6.14,0,8.48l0,0
			c-1.17,1.17-2.7,1.76-4.239,1.76l0,0C156.525,361.78,154.985,361.19,153.815,360.02z M141.015,347.22
			c-2.351-2.35-2.351-6.14,0-8.49l0,0c2.34-2.34,6.14-2.34,8.479,0l0,0c2.34,2.35,2.34,6.14,0,8.49l0,0
			c-1.17,1.17-2.7,1.75-4.24,1.75l0,0C143.714,348.97,142.185,348.39,141.015,347.22z M128.204,334.41c-2.34-2.34-2.34-6.14,0-8.48
			l0,0c2.351-2.34,6.15-2.34,8.49,0l0,0c2.34,2.34,2.34,6.14,0,8.48l0,0c-1.17,1.18-2.71,1.76-4.24,1.76l0,0
			C130.914,336.17,129.374,335.59,128.204,334.41z M115.404,321.61c-2.34-2.34-2.34-6.14,0-8.48l0,0c2.35-2.35,6.14-2.35,8.49,0l0,0
			c2.34,2.34,2.34,6.14,0,8.48l0,0c-1.181,1.17-2.71,1.76-4.25,1.76l0,0C118.114,323.37,116.574,322.78,115.404,321.61z
			 M102.605,308.81c-2.351-2.34-2.351-6.14,0-8.49l0,0c2.34-2.34,6.14-2.34,8.479,0l0,0c2.34,2.35,2.34,6.15,0,8.49l0,0
			c-1.17,1.17-2.7,1.76-4.24,1.76l0,0C105.315,310.57,103.775,309.98,102.605,308.81z M89.794,296.01c-2.34-2.35-2.34-6.15,0-8.49
			l0,0c2.351-2.34,6.15-2.34,8.49,0l0,0c2.34,2.34,2.34,6.14,0,8.49l0,0c-1.17,1.17-2.71,1.75-4.24,1.75l0,0
			C92.504,297.76,90.975,297.18,89.794,296.01z M76.994,283.2c-2.34-2.34-2.34-6.14,0-8.48l0,0c2.34-2.35,6.15-2.35,8.49,0l0,0
			c2.34,2.34,2.34,6.14,0,8.48l0,0c-1.17,1.18-2.71,1.76-4.24,1.76l0,0C79.704,284.96,78.164,284.38,76.994,283.2z M64.194,270.4
			c-2.34-2.34-2.34-6.14,0-8.48l0,0c2.34-2.35,6.14-2.35,8.479,0l0,0c2.351,2.34,2.351,6.14,0,8.48l0,0
			c-1.17,1.17-2.699,1.76-4.239,1.76l0,0C66.904,272.16,65.364,271.57,64.194,270.4z M51.395,257.6c-2.351-2.34-2.351-6.14,0-8.49
			l0,0c2.34-2.34,6.14-2.34,8.479,0l0,0c2.34,2.35,2.34,6.15,0,8.49l0,0c-1.17,1.17-2.7,1.76-4.24,1.76l0,0
			C54.094,259.36,52.565,258.77,51.395,257.6z M38.584,244.79c-2.34-2.34-2.34-6.14,0-8.48l0,0c2.351-2.34,6.15-2.34,8.49,0l0,0
			c2.34,2.34,2.34,6.14,0,8.48l0,0c-1.17,1.18-2.71,1.76-4.24,1.76l0,0C41.294,246.55,39.754,245.97,38.584,244.79z M26.174,230.5
			c-1.989-2.65-1.46-6.41,1.2-8.4l0,0c2.641-1.99,6.4-1.46,8.4,1.19l0,0l0,0l0,0c1.979,2.65,1.45,6.41-1.2,8.4l0,0
			c-1.08,0.81-2.34,1.21-3.6,1.21l0,0C29.154,232.89,27.355,232.07,26.174,230.5z M15.914,214.57L15.914,214.57
			c-1.59-2.91-0.52-6.55,2.38-8.14l0,0c2.91-1.59,6.55-0.52,8.141,2.38l0,0c0,0,0,0,0.01,0l0,0c1.59,2.91,0.52,6.56-2.39,8.15l0,0
			c-0.91,0.5-1.9,0.73-2.87,0.73l0,0C19.065,217.69,17.004,216.56,15.914,214.57z M8.034,197.33c-1.16-3.1,0.43-6.56,3.53-7.71l0,0
			c3.109-1.16,6.56,0.42,7.72,3.52l0,0c0,0,0,0,0,0.01l0,0c1.15,3.1-0.43,6.56-3.53,7.71l0,0c-0.689,0.26-1.399,0.38-2.09,0.38l0,0
			C11.225,201.24,8.935,199.75,8.034,197.33z M2.714,179.15L2.714,179.15c-0.71-3.24,1.351-6.43,4.591-7.13l0,0
			c3.239-0.71,6.43,1.35,7.14,4.59l0,0c0,0,0,0-0.01,0l0,0c0.699,3.24-1.351,6.43-4.591,7.13l0,0c-0.43,0.1-0.85,0.14-1.279,0.14
			l0,0C5.805,183.88,3.324,181.96,2.714,179.15z M0.025,160.4c-0.24-3.3,2.25-6.17,5.56-6.41l0,0c3.3-0.24,6.17,2.25,6.41,5.56l0,0
			c0.23,3.3-2.25,6.17-5.56,6.41l0,0c-0.141,0.01-0.29,0.01-0.431,0.01l0,0C2.884,165.97,0.244,163.56,0.025,160.4z M5.574,147.87
			c-3.3-0.23-5.79-3.11-5.56-6.41l0,0c0.239-3.3,3.109-5.8,6.409-5.56l0,0c3.311,0.23,5.801,3.1,5.57,6.41l0,0l0,0l0,0
			c-0.229,3.16-2.87,5.58-5.99,5.58l0,0C5.864,147.89,5.725,147.88,5.574,147.87z M7.294,129.84c-3.239-0.7-5.3-3.89-4.6-7.13l0,0
			c0.7-3.24,3.89-5.3,7.14-4.6l0,0c3.23,0.7,5.29,3.9,4.59,7.13l0,0c-0.609,2.81-3.09,4.74-5.859,4.74l0,0
			C8.145,129.98,7.714,129.93,7.294,129.84z M11.544,112.24c-3.109-1.16-4.689-4.61-3.529-7.72l0,0c1.159-3.11,4.609-4.69,7.71-3.53
			l0,0c3.109,1.16,4.689,4.61,3.54,7.71l0,0c-0.9,2.42-3.19,3.91-5.631,3.91l0,0C12.944,112.61,12.235,112.49,11.544,112.24z
			 M18.265,95.42c-2.9-1.59-3.971-5.24-2.381-8.14l0,0c1.58-2.91,5.23-3.98,8.141-2.39l0,0c2.91,1.59,3.979,5.23,2.39,8.14l0,0l0,0
			l0,0c-1.09,2-3.149,3.13-5.27,3.13l0,0C20.164,96.16,19.185,95.92,18.265,95.42z M27.334,79.74c-2.649-1.99-3.18-5.75-1.2-8.4
			h0.011c1.979-2.65,5.739-3.18,8.39-1.2l0,0c2.66,1.99,3.19,5.75,1.2,8.4l0,0c-1.18,1.58-2.98,2.4-4.8,2.4l0,0
			C29.685,80.94,28.414,80.55,27.334,79.74z M38.555,65.52c-2.341-2.34-2.341-6.14,0-8.48l0,0c2.34-2.35,6.14-2.35,8.479-0.01l0,0
			c2.35,2.35,2.35,6.15,0,8.49l0,0c-1.17,1.17-2.7,1.76-4.24,1.76l0,0C41.265,67.28,39.725,66.69,38.555,65.52z M51.664,53.02
			c-1.99-2.65-1.439-6.41,1.21-8.39l0,0c2.66-1.99,6.42-1.44,8.4,1.21l0,0c1.979,2.66,1.439,6.42-1.22,8.4l0,0
			c-1.07,0.81-2.33,1.2-3.58,1.2l0,0C54.645,55.44,52.834,54.6,51.664,53.02z M204.824,54.2L204.824,54.2L204.824,54.2
			c-2.65-1.99-3.18-5.75-1.2-8.4l0,0c1.99-2.66,5.75-3.19,8.41-1.2l0,0c2.65,1.99,3.18,5.75,1.19,8.4l0,0
			c-1.181,1.57-2.98,2.4-4.801,2.4l0,0C207.174,55.4,205.904,55.01,204.824,54.2z M66.424,42.55c-1.569-2.91-0.489-6.55,2.42-8.13
			l0,0c2.921-1.58,6.561-0.5,8.141,2.42l0,0c1.57,2.91,0.49,6.55-2.42,8.13l0,0c-0.91,0.49-1.891,0.72-2.851,0.72l0,0
			C69.584,45.69,67.515,44.56,66.424,42.55z M190.344,44.83c-2.909-1.6-3.97-5.25-2.369-8.15l0,0c1.6-2.91,5.25-3.96,8.149-2.36l0,0
			c2.91,1.6,3.96,5.25,2.37,8.15l0,0c-1.1,1.98-3.15,3.1-5.27,3.1l0,0C192.254,45.57,191.254,45.33,190.344,44.83z M82.555,34.32
			c-1.15-3.11,0.449-6.56,3.55-7.7h0.01c3.1-1.15,6.55,0.44,7.7,3.55l0,0c1.149,3.11-0.44,6.56-3.55,7.7l0,0
			c-0.69,0.26-1.391,0.38-2.08,0.38l0,0C85.744,38.25,83.454,36.74,82.555,34.32z M174.694,37.61c-3.101-1.17-4.67-4.63-3.5-7.73
			l0,0c1.17-3.1,4.63-4.67,7.729-3.5l0,0c3.101,1.17,4.66,4.63,3.5,7.73l0,0c-0.909,2.4-3.189,3.89-5.619,3.89l0,0
			C176.105,38,175.384,37.87,174.694,37.61z M99.694,28.46c-0.71-3.24,1.35-6.43,4.59-7.14l0,0c3.23-0.7,6.43,1.36,7.13,4.59l0,0
			c0.71,3.24-1.35,6.44-4.59,7.14l0,0c-0.43,0.09-0.85,0.14-1.28,0.14l0,0C102.784,33.19,100.305,31.27,99.694,28.46z
			 M158.185,32.73c-3.24-0.7-5.301-3.89-4.591-7.13l0,0c0.7-3.24,3.9-5.3,7.141-4.59h-0.01c3.239,0.7,5.3,3.89,4.6,7.13l0,0
			c-0.61,2.81-3.1,4.73-5.86,4.73l0,0C159.044,32.87,158.614,32.83,158.185,32.73z M117.475,25.03c-0.261-3.31,2.21-6.2,5.51-6.46
			l0,0c3.3-0.26,6.189,2.21,6.45,5.51l0,0c0.26,3.31-2.21,6.2-5.511,6.46l0,0c-0.159,0.01-0.319,0.02-0.479,0.02l0,0
			C120.344,30.55,117.714,28.17,117.475,25.03z M141.164,30.36c-3.31-0.21-5.82-3.06-5.609-6.36l0,0c0.21-3.31,3.06-5.82,6.369-5.61
			l0,0c3.301,0.2,5.82,3.05,5.61,6.36l0,0c-0.21,3.18-2.85,5.62-5.99,5.62l0,0C141.424,30.37,141.294,30.37,141.164,30.36z"/>
		<path style="fill:#F4E84A;" d="M222.094,425.81c-1.579,0-3.13-0.64-4.239-1.75c-1.12-1.12-1.761-2.67-1.761-4.25
			s0.641-3.12,1.761-4.24c1.109-1.11,2.66-1.75,4.239-1.75c1.58,0,3.131,0.64,4.24,1.75c1.12,1.12,1.76,2.66,1.76,4.24
			s-0.64,3.13-1.76,4.25C225.225,425.17,223.674,425.81,222.094,425.81z"/>
		<path style="fill:#F4E84A;" d="M230.654,411.25c-2.34-2.34-2.34-6.14,0-8.48l0,0c2.34-2.34,6.14-2.34,8.479,0l0,0
			c2.351,2.34,2.351,6.14,0,8.48l0,0c-1.17,1.18-2.699,1.76-4.239,1.76l0,0C233.364,413.01,231.824,412.43,230.654,411.25z
			 M243.454,398.45c-2.34-2.34-2.34-6.14,0-8.48l0,0c2.34-2.35,6.14-2.35,8.48,0l0,0c2.35,2.34,2.35,6.14,0,8.48l0,0
			c-1.17,1.17-2.7,1.76-4.24,1.76l0,0C246.164,400.21,244.624,399.62,243.454,398.45z M256.254,385.65c-2.34-2.35-2.34-6.14,0-8.49
			l0,0c2.34-2.34,6.15-2.34,8.49,0l0,0c2.34,2.35,2.34,6.14,0,8.49l0,0c-1.17,1.17-2.71,1.76-4.24,1.76l0,0
			C258.964,387.41,257.424,386.82,256.254,385.65z M269.065,372.85c-2.351-2.35-2.351-6.15,0-8.49l0,0c2.34-2.34,6.14-2.34,8.479,0
			l0,0c2.34,2.34,2.34,6.14,0,8.49l0,0c-1.17,1.17-2.7,1.75-4.239,1.75l0,0C271.765,374.6,270.235,374.02,269.065,372.85z
			 M281.864,360.04c-2.34-2.34-2.34-6.14,0-8.48l0,0c2.34-2.35,6.14-2.35,8.49,0l0,0c2.34,2.34,2.34,6.14,0,8.48l0,0
			c-1.181,1.17-2.71,1.76-4.25,1.76l0,0C284.574,361.8,283.034,361.21,281.864,360.04z M294.664,347.24c-2.34-2.34-2.34-6.14,0-8.49
			l0,0c2.351-2.34,6.141-2.34,8.49,0l0,0c2.34,2.35,2.34,6.15,0,8.49l0,0c-1.17,1.17-2.71,1.76-4.25,1.76l0,0
			C297.374,349,295.834,348.41,294.664,347.24z M307.464,334.44c-2.34-2.35-2.34-6.14,0-8.49l0,0c2.351-2.34,6.15-2.34,8.49,0l0,0
			c2.34,2.35,2.34,6.14,0,8.49l0,0c-1.17,1.17-2.71,1.75-4.24,1.75l0,0C310.174,336.19,308.645,335.61,307.464,334.44z
			 M320.275,321.64c-2.351-2.35-2.351-6.15,0-8.49l0,0c2.34-2.35,6.14-2.35,8.479,0l0,0c2.351,2.34,2.351,6.14,0,8.49l0,0
			c-1.17,1.17-2.699,1.75-4.239,1.75l0,0C322.975,323.39,321.444,322.81,320.275,321.64z M333.074,308.83
			c-2.34-2.34-2.34-6.14,0-8.48l0,0c2.34-2.35,6.14-2.35,8.49,0l0,0c2.34,2.34,2.34,6.14,0,8.48l0,0
			c-1.181,1.17-2.71,1.76-4.25,1.76l0,0C335.784,310.59,334.244,310,333.074,308.83z M345.874,296.03c-2.34-2.34-2.34-6.14,0-8.49
			l0,0c2.351-2.34,6.15-2.34,8.49,0l0,0c2.34,2.35,2.34,6.15,0,8.49l0,0c-1.17,1.17-2.71,1.75-4.24,1.75l0,0
			C348.584,297.78,347.044,297.2,345.874,296.03z M358.685,283.22c-2.351-2.34-2.351-6.14,0-8.48l0,0c2.34-2.34,6.14-2.34,8.479,0
			l0,0c2.34,2.34,2.34,6.14,0,8.48l0,0c-1.17,1.18-2.71,1.76-4.24,1.76l0,0C361.384,284.98,359.855,284.4,358.685,283.22z
			 M371.485,270.42c-2.34-2.34-2.34-6.14,0-8.48l0,0c2.34-2.35,6.14-2.35,8.479,0l0,0c2.351,2.34,2.351,6.14,0,8.48l0,0
			c-1.17,1.17-2.699,1.76-4.239,1.76l0,0C374.194,272.18,372.654,271.59,371.485,270.42z M384.284,257.62
			c-2.34-2.34-2.34-6.14,0-8.48l0,0c2.34-2.35,6.14-2.35,8.49,0l0,0c2.34,2.34,2.34,6.14,0,8.48l0,0c-1.17,1.17-2.71,1.76-4.25,1.76
			l0,0C386.994,259.38,385.454,258.79,384.284,257.62z M397.084,244.82c-2.34-2.34-2.34-6.15,0-8.49l0,0
			c2.351-2.34,6.15-2.34,8.49,0l0,0c2.34,2.34,2.34,6.15,0,8.49l0,0c-1.17,1.17-2.71,1.75-4.24,1.75l0,0
			C399.794,246.57,398.265,245.99,397.084,244.82z M409.594,231.71c-2.649-1.99-3.18-5.75-1.189-8.4l0,0
			c1.99-2.65,5.75-3.18,8.4-1.19l0,0c2.649,1.99,3.18,5.75,1.189,8.4l0,0c-1.18,1.57-2.979,2.4-4.8,2.4l0,0
			C411.935,232.92,410.674,232.53,409.594,231.71z M420.114,216.97c-2.9-1.59-3.97-5.23-2.38-8.14l0,0
			c1.59-2.91,5.24-3.97,8.14-2.38l0,0c2.91,1.59,3.98,5.23,2.391,8.14l0,0c-1.091,1.99-3.15,3.12-5.271,3.12l0,0
			C422.015,217.71,421.034,217.47,420.114,216.97z M428.424,200.88c-3.109-1.16-4.689-4.61-3.529-7.72l0,0
			c1.16-3.11,4.609-4.68,7.72-3.52l0,0c3.1,1.15,4.68,4.61,3.53,7.71l0,0c-0.91,2.42-3.2,3.91-5.63,3.91l0,0
			C429.824,201.26,429.114,201.14,428.424,200.88z M434.334,183.76c-3.24-0.7-5.3-3.9-4.59-7.13l0,0c0.7-3.24,3.9-5.3,7.14-4.6l0,0
			c3.23,0.71,5.29,3.9,4.591,7.14l0,0c-0.62,2.81-3.101,4.73-5.86,4.73l0,0C435.185,183.9,434.765,183.85,434.334,183.76z
			 M437.744,165.98c-3.3-0.24-5.79-3.11-5.56-6.42l0,0c0.239-3.3,3.109-5.79,6.42-5.55l0,0c3.3,0.23,5.79,3.1,5.56,6.41l0,0
			c-0.229,3.16-2.87,5.57-5.979,5.57l0,0C438.034,165.99,437.895,165.99,437.744,165.98z M432.194,142.32
			c-0.23-3.3,2.26-6.17,5.57-6.4l0,0c3.3-0.24,6.17,2.25,6.399,5.56l0,0c0.23,3.3-2.26,6.17-5.56,6.41l0,0
			c-0.141,0.01-0.28,0.01-0.431,0.01l0,0C435.055,147.9,432.424,145.49,432.194,142.32z M429.765,125.26L429.765,125.26
			L429.765,125.26c-0.7-3.24,1.359-6.43,4.6-7.13l0,0c3.24-0.7,6.43,1.36,7.13,4.6l0,0c0.7,3.24-1.36,6.43-4.6,7.13l0,0
			c-0.431,0.09-0.851,0.14-1.271,0.14l0,0C432.855,130,430.374,128.07,429.765,125.26z M424.935,108.72
			c-1.16-3.11,0.42-6.56,3.529-7.71l0,0c3.101-1.16,6.561,0.42,7.71,3.53l0,0c1.15,3.11-0.42,6.56-3.529,7.71l0,0
			c-0.69,0.26-1.4,0.38-2.09,0.38l0,0C428.114,112.63,425.824,111.14,424.935,108.72z M417.784,93.05L417.784,93.05L417.784,93.05
			c-1.59-2.91-0.52-6.55,2.39-8.14l0,0c2.91-1.59,6.551-0.52,8.141,2.39l0,0c1.59,2.91,0.52,6.55-2.391,8.14l0,0
			c-0.909,0.5-1.899,0.73-2.869,0.73l0,0C420.935,96.17,418.874,95.04,417.784,93.05z M408.464,78.56
			c-1.989-2.65-1.449-6.41,1.2-8.4l0,0c2.65-1.98,6.41-1.45,8.4,1.2l0,0c1.99,2.65,1.45,6.42-1.2,8.4l0,0
			c-1.08,0.81-2.34,1.2-3.6,1.2l0,0C411.444,80.96,409.645,80.14,408.464,78.56z M397.164,65.54c-2.34-2.35-2.34-6.14,0.01-8.49l0,0
			c2.341-2.34,6.141-2.34,8.48,0.01l0,0c2.34,2.34,2.34,6.14,0,8.48l0,0c-1.18,1.17-2.71,1.76-4.25,1.76l0,0
			C399.874,67.3,398.334,66.71,397.164,65.54z M384.145,54.26c-2.65-1.99-3.2-5.75-1.21-8.4l0,0c1.979-2.66,5.739-3.2,8.39-1.22
			h0.01c2.65,1.99,3.19,5.75,1.21,8.4l0,0c-1.18,1.58-2.979,2.41-4.81,2.41l0,0C386.485,55.45,385.225,55.06,384.145,54.26z
			 M230.994,52.97c-2-2.65-1.47-6.41,1.18-8.4l0,0c2.65-1.99,6.41-1.46,8.4,1.19l0,0c2,2.65,1.47,6.41-1.18,8.4l0,0l0,0l0,0
			c-1.08,0.81-2.351,1.21-3.61,1.21l0,0C233.964,55.37,232.174,54.54,230.994,52.97z M369.645,44.98c-2.92-1.58-4-5.22-2.42-8.14
			l0,0c1.58-2.91,5.22-3.99,8.13-2.41l0,0c2.92,1.58,4,5.22,2.42,8.13l0,0c-1.09,2.01-3.15,3.14-5.28,3.14l0,0
			C371.525,45.7,370.544,45.47,369.645,44.98z M245.714,42.43c-1.6-2.9-0.54-6.55,2.36-8.15l0,0c2.9-1.6,6.55-0.55,8.15,2.36l0,0
			c1.6,2.9,0.54,6.55-2.36,8.15l0,0l0,0l0,0c-0.92,0.5-1.91,0.74-2.89,0.74l0,0C248.855,45.53,246.805,44.41,245.714,42.43z
			 M353.935,37.87c-3.11-1.15-4.69-4.6-3.551-7.7l0,0c1.15-3.11,4.601-4.7,7.71-3.55l0,0c3.11,1.14,4.7,4.59,3.551,7.7l0,0
			c-0.891,2.42-3.19,3.92-5.63,3.92l0,0C355.324,38.24,354.624,38.12,353.935,37.87z M261.775,34.08c-1.16-3.11,0.41-6.57,3.51-7.73
			l0,0c3.1-1.17,6.56,0.4,7.72,3.5l0,0c1.17,3.1-0.399,6.57-3.5,7.73l0,0c-0.689,0.26-1.41,0.39-2.109,0.39l0,0
			C264.964,37.97,262.685,36.48,261.775,34.08z M337.374,33.05c-3.24-0.71-5.29-3.9-4.59-7.14l0,0c0.7-3.24,3.9-5.3,7.14-4.59l0,0
			c3.24,0.7,5.29,3.9,4.591,7.14l0,0c-0.62,2.8-3.101,4.72-5.86,4.72l0,0C338.235,33.18,337.805,33.14,337.374,33.05z
			 M278.884,28.12c-0.699-3.24,1.351-6.43,4.591-7.13l0,0c3.239-0.7,6.439,1.36,7.13,4.6l0,0c0.7,3.24-1.36,6.43-4.59,7.13l0,0l0,0
			l0,0c-0.431,0.1-0.86,0.14-1.28,0.14l0,0C281.975,32.86,279.485,30.94,278.884,28.12z M320.275,30.53
			c-3.3-0.26-5.771-3.14-5.51-6.45l0,0c0.26-3.3,3.149-5.77,6.449-5.51l0,0c3.301,0.26,5.771,3.15,5.521,6.45l0,0
			c-0.25,3.15-2.88,5.53-5.98,5.53l0,0C320.594,30.55,320.435,30.55,320.275,30.53z M296.674,24.75c-0.21-3.31,2.301-6.16,5.61-6.37
			l0,0c3.31-0.2,6.15,2.31,6.36,5.61l0,0c0.21,3.31-2.301,6.16-5.61,6.37l0,0c-0.13,0.01-0.25,0.01-0.38,0.01l0,0
			C299.515,30.37,296.874,27.93,296.674,24.75z"/>
	</g>
</g>
<g>
</g>
<g>
</g>
<g>
</g>
<g>
</g>
<g>
</g>
<g>
</g>
<g>
</g>
<g>
</g>
<g>
</g>
<g>
</g>
<g>
</g>
<g>
</g>
<g>
</g>
<g>
</g>
<g>
</g>
</svg>
