<svg id="line" height="512" viewBox="0 0 64 64" width="512" xmlns="http://www.w3.org/2000/svg"><g fill="#c4a2fc"><path d="m37.074 42.608a9.5 9.5 0 1 1 9.852 0 21.092 21.092 0 0 1 13.234 9.892 21 21 0 1 0 -36.32 0 21.092 21.092 0 0 1 13.234-9.892z"/><path d="m42 44a19.007 19.007 0 0 0 -16.916 10.391 20.924 20.924 0 0 0 33.832 0 19.007 19.007 0 0 0 -16.916-10.391z"/><circle cx="42" cy="34.5" r="7.5"/></g><path d="m46 41a4.969 4.969 0 0 0 -2.753.833l-4.558-4.558a16.9 16.9 0 0 0 0-22.55l4.558-4.558a5.015 5.015 0 1 0 -1.414-1.414l-4.558 4.558a16.9 16.9 0 0 0 -22.55 0l-4.558-4.558a5.015 5.015 0 1 0 -1.414 1.414l4.558 4.558a16.9 16.9 0 0 0 0 22.55l-4.558 4.558a5.015 5.015 0 1 0 1.414 1.414l4.558-4.558a16.9 16.9 0 0 0 22.55 0l4.558 4.558a5 5 0 1 0 4.167-2.247zm0-38a3 3 0 1 1 -3 3 3 3 0 0 1 3-3zm-43 3a3 3 0 1 1 3 3 3 3 0 0 1 -3-3zm23 5a14.984 14.984 0 0 1 13.739 21 17.087 17.087 0 0 0 -9.614-6.482 6.5 6.5 0 1 0 -8.25 0 17.082 17.082 0 0 0 -9.613 6.482 14.982 14.982 0 0 1 13.738-21zm-4.5 9.5a4.5 4.5 0 1 1 4.5 4.5 4.505 4.505 0 0 1 -4.5-4.5zm-15.5 28.5a3 3 0 1 1 3-3 3 3 0 0 1 -3 3zm7.326-15.013a15 15 0 0 1 25.348 0 14.964 14.964 0 0 1 -25.348 0zm32.674 15.013a3 3 0 1 1 3-3 3 3 0 0 1 -3 3z" fill="#151a6a"/></svg>