<?xml version="1.0" encoding="iso-8859-1"?>
<!-- Generator: Adobe Illustrator 19.1.0, SVG Export Plug-In . SVG Version: 6.00 Build 0)  -->
<svg version="1.1" id="Capa_1" xmlns="http://www.w3.org/2000/svg" xmlns:xlink="http://www.w3.org/1999/xlink" x="0px" y="0px"
	 viewBox="0 0 447.6 447.6" style="enable-background:new 0 0 447.6 447.6;" xml:space="preserve">
<g>
	<path style="fill:#F2D24C;" d="M253.762,45.144c-7.708,2.909-14.272,8.19-19.265,14.693c-0.044-3.105-0.238-6.204-0.577-9.274
		c-0.668-6.057-1.962-12.074-3.985-17.826c-1.532-4.357-3.423-8.851-6.136-12.621c-3.069,4.266-5.135,9.429-6.734,14.398
		c-2.618,8.14-3.875,16.722-3.966,25.298c-1.724-2.241-3.628-4.339-5.713-6.242c-7.829-7.146-19.316-12.46-30.106-10.137
		c1.43,1.785,3.045,3.452,4.607,5.119c1.988,2.121,3.892,4.327,5.763,6.551c6.002,7.135,11.486,14.675,16.701,22.4
		c5.614,8.314,11.053,16.945,17.601,24.572c0.244-0.592,0.456-1.202,0.646-1.821c0.383,0.621,0.778,1.233,1.199,1.822
		c0.421-0.589,0.819-1.198,1.204-1.818c0.188,0.618,0.397,1.227,0.641,1.817c3.308-3.853,6.263-8.04,9.17-12.199
		c5.371-7.684,10.43-15.586,15.993-23.134c3.384-4.592,6.894-9.096,10.64-13.4c2.902-3.335,6.107-6.46,8.87-9.909
		C264.866,42.26,258.921,43.198,253.762,45.144z"/>
	<path style="fill:#45CE83;" d="M224.528,75.774h-1.456c-22.177,0-40.154,17.978-40.154,40.154v66.735h81.765v-66.735
		C264.682,93.751,246.705,75.774,224.528,75.774z"/>
	<path style="fill:#45CE83;" d="M223.8,325.969c-19.147,0-35.786,13.378-39.657,32.13c-1.585,7.678-4.011,13.743-9.609,15.665
		c-13.354,4.586-27.956-19.075-43.921-26.055c-12.678-5.544-38.174,5.088-50.625-6.162c-10.768-9.729-3.845-36.863-13.285-49.88
		c-8.769-12.09-36.751-13.526-43.482-27.696c-6.517-13.72,10.005-36.138,6.191-51.135c-3.769-14.82-29.037-26.941-29.408-42.366
		c-0.365-15.194,24.145-28.069,27.802-43.235c3.494-14.489-12.568-37.282-4.761-51.201c2.228-3.972,6.467-6.565,11.585-8.614
		c21.396-8.566,45.879-3.044,62.126,13.303l40.67,40.919c10.87,10.87,15.224,26.634,11.531,41.557
		c-1.106,4.468-1.658,9.154-1.58,13.983c0.486,29.833,25.474,53.473,55.311,53.473h42.223c29.837,0,54.825-23.64,55.311-53.473
		c0.079-4.829-0.474-9.515-1.58-13.983c-3.693-14.923,0.661-30.687,11.531-41.557l40.67-40.919
		c16.247-16.346,40.73-21.868,62.126-13.303c5.118,2.049,9.357,4.642,11.585,8.614c7.807,13.919-8.254,36.713-4.761,51.201
		c3.657,15.167,28.168,28.041,27.802,43.235c-0.371,15.425-25.639,27.546-29.408,42.366c-3.814,14.997,12.708,37.416,6.191,51.135
		c-6.731,14.17-34.713,15.605-43.482,27.696c-9.441,13.017-2.518,40.15-13.285,49.88c-12.451,11.25-37.947,0.618-50.625,6.162
		c-15.965,6.981-30.566,30.641-43.921,26.055c-5.598-1.923-8.025-7.987-9.609-15.665C259.586,339.347,242.948,325.969,223.8,325.969
		L223.8,325.969z"/>
	<path style="fill:#F2D24C;" d="M264.835,182.663c0,22.658-18.377,41.035-41.035,41.035c-22.667,0-41.035-18.377-41.035-41.035
		c0-15.363,8.441-28.755,20.947-35.789c2.84-1.607,5.888-2.866,9.101-3.752c3.5-0.981,7.182-1.494,10.986-1.494
		c3.804,0,7.486,0.521,10.986,1.494c3.213,0.886,6.262,2.145,9.102,3.752C256.385,153.908,264.835,167.3,264.835,182.663z"/>
	<path style="fill:#FFFFFF;" d="M245.421,182.055c0,11.942-9.681,21.624-21.624,21.624c-11.942,0-21.624-9.681-21.624-21.624
		H245.421z"/>
	<g>
		<path style="fill:#4D4D4D;" d="M193.413,173.979c3.024-8.242,17.012-8.439,19.952,0c-1.508-0.403-2.954-0.998-4.488-1.317
			c-1.812-0.377-3.631-0.641-5.488-0.648c-1.802-0.007-3.601,0.232-5.358,0.616C196.454,172.976,194.969,173.579,193.413,173.979z"
			/>
		<path style="fill:#4D4D4D;" d="M234.231,173.979c3.024-8.242,17.012-8.439,19.952,0c-1.508-0.403-2.954-0.998-4.488-1.317
			c-1.812-0.377-3.631-0.641-5.488-0.648c-1.802-0.007-3.601,0.232-5.358,0.616C237.272,172.976,235.786,173.579,234.231,173.979z"
			/>
	</g>
	<path style="fill:#F2D24C;" d="M411.64,392.986c-14.351-12.438-33.22-18.361-52.105-16.355l-61.91,6.573L281.139,265.39v0
		c0-14.647-11.874-26.521-26.521-26.521h-4.088c-7.311,0-13.237-5.927-13.237-13.237V210.2h-26.983v15.432
		c0,7.311-5.927,13.237-13.237,13.237h-4.088c-14.647,0-26.521,11.874-26.521,26.521v0l-16.487,117.813l-61.91-6.573
		c-18.885-2.005-37.754,3.918-52.105,16.355h0l118.99,20.775c9.388,1.729,18.228-4.996,19.066-14.505l15.916-55.491
		c10.548,17.394,8.172,63.555,3.59,83.719h60.558c-4.582-20.165-6.957-66.325,3.59-83.719l15.916,55.491
		c0.838,9.509,9.677,16.234,19.066,14.505L411.64,392.986L411.64,392.986z"/>
	<circle style="fill:#45CE83;" cx="197.449" cy="308.013" r="37.102"/>
	<circle style="fill:#45CE83;" cx="254.787" cy="308.013" r="37.102"/>
	<path style="fill:#FFFFFF;" d="M219.051,317.115c-3.936,0-7.127-3.191-7.127-7.127c0-9.785-7.96-17.745-17.745-17.745
		c-3.936,0-7.127-3.191-7.127-7.127s3.191-7.127,7.127-7.127c17.644,0,31.998,14.354,31.998,31.998
		C226.178,313.924,222.988,317.115,219.051,317.115z"/>
	<path style="fill:#FFFFFF;" d="M279.282,317.115c-3.936,0-7.127-3.191-7.127-7.127c0-9.785-7.96-17.745-17.744-17.745
		c-3.936,0-7.127-3.191-7.127-7.127s3.191-7.127,7.127-7.127c17.644,0,31.998,14.354,31.998,31.998
		C286.409,313.924,283.218,317.115,279.282,317.115z"/>
	<polygon style="fill:#F4E84A;" points="223.8,136.496 204.168,116.864 223.8,107.336 243.432,116.864 	"/>
	<g>
		<circle style="fill:#F2D24C;" cx="205.661" cy="99.632" r="6.041"/>
		<circle style="fill:#F2D24C;" cx="241.939" cy="99.632" r="6.041"/>
	</g>
	<g>
		<path style="fill:#F48438;" d="M193.704,245.432c-1.311,0-2.601-0.53-3.53-1.46c-0.93-0.93-1.47-2.22-1.47-3.54
			c0-1.31,0.54-2.6,1.47-3.53c0.93-0.93,2.22-1.47,3.53-1.47c1.319,0,2.609,0.54,3.54,1.47c0.93,0.93,1.46,2.22,1.46,3.53
			c0,1.32-0.53,2.61-1.46,3.54C196.314,244.902,195.024,245.432,193.704,245.432z"/>
		<path style="fill:#F48438;" d="M218.784,270.522c0-2.76,2.239-5,5-4.99l0,0c2.76,0,5,2.24,5,5l0,0c0,2.76-2.24,5-5,5l0,0
			C221.024,275.522,218.784,273.283,218.784,270.522z M234.494,269.013c-1.38-2.39-0.561-5.45,1.83-6.83l0,0l0,0l0,0
			c2.39-1.38,5.449-0.56,6.829,1.83l0,0c1.381,2.39,0.561,5.45-1.829,6.83l0,0c-0.79,0.46-1.65,0.67-2.49,0.67l0,0
			C237.104,271.513,235.424,270.613,234.494,269.013z M206.244,270.823L206.244,270.823c-2.391-1.38-3.21-4.44-1.83-6.83l0,0
			c1.39-2.39,4.439-3.21,6.84-1.82l0,0c2.39,1.38,3.2,4.44,1.82,6.83l0,0c-0.931,1.6-2.61,2.5-4.33,2.5l0,0
			C207.894,271.502,207.034,271.283,206.244,270.823z M247.344,259.843c-2.39-1.39-3.21-4.45-1.82-6.84l0,0
			c1.38-2.39,4.44-3.2,6.83-1.81l0,0c2.391,1.38,3.2,4.44,1.82,6.83l0,0c-0.93,1.6-2.61,2.49-4.33,2.49l0,0
			C248.994,260.513,248.134,260.292,247.344,259.843z M193.404,257.993c-1.38-2.39-0.56-5.45,1.83-6.83l0,0
			c2.391-1.39,5.45-0.57,6.83,1.82l0,0c1.38,2.39,0.57,5.45-1.83,6.83l0,0c-0.779,0.46-1.64,0.67-2.489,0.67l0,0
			C196.014,260.482,194.334,259.593,193.404,257.993z"/>
		<path style="fill:#F48438;" d="M253.894,245.432c-1.319,0-2.609-0.53-3.54-1.46c-0.93-0.93-1.46-2.22-1.46-3.54
			c0-1.31,0.53-2.6,1.46-3.53c0.931-0.93,2.221-1.47,3.54-1.47c1.311,0,2.601,0.54,3.53,1.47c0.93,0.93,1.47,2.22,1.47,3.53
			c0,1.32-0.54,2.61-1.47,3.54C256.494,244.902,255.204,245.432,253.894,245.432z"/>
	</g>
</g>
<g>
</g>
<g>
</g>
<g>
</g>
<g>
</g>
<g>
</g>
<g>
</g>
<g>
</g>
<g>
</g>
<g>
</g>
<g>
</g>
<g>
</g>
<g>
</g>
<g>
</g>
<g>
</g>
<g>
</g>
</svg>
