<svg id="line" height="512" viewBox="0 0 64 64" width="512" xmlns="http://www.w3.org/2000/svg"><g fill="#c4a2fc"><path d="m24.246 36.844a14.088 14.088 0 0 0 16.805-9.16 1 1 0 0 1 1.9 0 14.085 14.085 0 0 0 16.805 9.16l2.661-.683a20.975 20.975 0 0 0 -40.83 0z"/><path d="m36.736 53.711a11.4 11.4 0 0 0 10.529 0 8.951 8.951 0 0 0 -10.529 0z"/><path d="m60.251 38.781a16.1 16.1 0 0 1 -18.251-8.211 16.105 16.105 0 0 1 -18.251 8.211l-2.53-.649a21 21 0 1 0 41.562 0zm-5.217 8.505a13.6 13.6 0 0 1 -26.068 0 1 1 0 0 1 .958-1.286h24.152a1 1 0 0 1 .958 1.286z"/><path d="m34.936 52.577a10.962 10.962 0 0 1 14.127 0 11.645 11.645 0 0 0 3.585-4.577h-21.3a11.64 11.64 0 0 0 3.588 4.577z"/></g><path d="m22 2a21 21 0 1 0 21 21 21.024 21.024 0 0 0 -21-21zm0 2a19.015 19.015 0 0 1 18.382 14.28l-2.382.61a12.622 12.622 0 0 1 -15.055-8.206 1 1 0 0 0 -1.9 0 12.62 12.62 0 0 1 -15.045 8.206l-2.378-.61a19.015 19.015 0 0 1 18.378-14.28zm0 38a18.861 18.861 0 0 1 -18.777-21.756l2.276.583a14.639 14.639 0 0 0 16.501-7.297 14.642 14.642 0 0 0 16.5 7.3l2.276-.583a18.861 18.861 0 0 1 -18.776 21.753z" fill="#151a6a"/><path d="m30.337 28.042a1 1 0 0 0 -1.244.672 7.411 7.411 0 0 1 -14.186 0 1 1 0 0 0 -1.916.572c2.658 8.9 15.353 8.923 18.018 0a1 1 0 0 0 -.672-1.244z" fill="#151a6a"/></svg>