<svg id="line" height="512" viewBox="0 0 64 64" width="512" xmlns="http://www.w3.org/2000/svg"><path d="m60.3 27.751a3.034 3.034 0 0 0 -3.019-2.751h-26.562a3.034 3.034 0 0 0 -3.019 2.751l-2.691 32a3.012 3.012 0 0 0 3.019 3.249h31.944a3.012 3.012 0 0 0 3.017-3.249zm-5.2 4.249a11.1 11.1 0 0 1 -22.2 0v-2a1.009 1.009 0 0 1 2.018 0v2a9.083 9.083 0 0 0 18.166 0v-2a1.009 1.009 0 0 1 2.016 0z" fill="#c4a2fc"/><path d="m40 9h-6.026a4.985 4.985 0 0 0 -3.974-8 9 9 0 0 0 -8 4.9 9 9 0 0 0 -8-4.9 4.984 4.984 0 0 0 -3.974 8h-6.026a3 3 0 0 0 -3 3v4a3 3 0 0 0 2 2.816v25.184a3 3 0 0 0 3 3h32a3 3 0 0 0 3-3v-25.184a3 3 0 0 0 2-2.816v-4a3 3 0 0 0 -3-3zm-10-6c3.97 0 3.966 6 0 6h-6.929a7.011 7.011 0 0 1 6.929-6zm-16 0a7.011 7.011 0 0 1 6.929 6h-6.929c-3.97 0-3.966-6 0-6zm-11 9a1 1 0 0 1 1-1h17v6h-17a1 1 0 0 1 -1-1zm2 32v-25h16v26h-15a1 1 0 0 1 -1-1zm34 0a1 1 0 0 1 -1 1h-15v-26h16zm2-28a1 1 0 0 1 -1 1h-17v-6h17a1 1 0 0 1 1 1z" fill="#151a6a"/></svg>