<?xml version="1.0" encoding="iso-8859-1"?>
<!-- Generator: Adobe Illustrator 19.1.0, SVG Export Plug-In . SVG Version: 6.00 Build 0)  -->
<svg version="1.1" id="Capa_1" xmlns="http://www.w3.org/2000/svg" xmlns:xlink="http://www.w3.org/1999/xlink" x="0px" y="0px"
	 viewBox="0 0 466.486 466.486" style="enable-background:new 0 0 466.486 466.486;" xml:space="preserve">
<g>
	<g>
		<path style="fill:#46B9CC;" d="M169.088,103.31c3.493,6.287,6.8,12.654,10.087,19.049c3.358,6.534,6.432,13.24,9.416,19.953
			c3.023,6.801,5.964,13.65,8.705,20.57c4.408,11.131,8.58,22.354,12.449,33.684c4.801,14.06,9.357,28.195,13.835,42.36
			c0.709,2.242,1.413,4.486,2.119,6.73h11.061c-0.103-5.968-0.49-11.93-1.062-17.821c-1.493-15.384-4.613-30.564-9.071-45.356
			c-3.551-11.782-8.134-23.131-13.463-34.215c-6.516-13.556-14.921-26.202-24.571-37.714c-2.428-2.897-5.036-5.635-7.665-8.351
			c-2.486-2.568-5.164-5.092-7.919-7.372c-4.789-3.962-9.726-7.7-15.076-10.878c0.46,0.858,0.942,1.705,1.427,2.549
			C162.586,92.113,165.941,97.647,169.088,103.31z"/>
		<path style="fill:#46B9CC;" d="M297.398,103.31c-3.493,6.287-6.8,12.654-10.087,19.049c-3.358,6.534-6.432,13.24-9.416,19.953
			c-3.023,6.801-5.964,13.65-8.705,20.57c-4.408,11.131-8.58,22.354-12.449,33.684c-4.801,14.06-9.357,28.195-13.835,42.36
			c-0.709,2.242-1.413,4.486-2.119,6.73h-11.061c0.103-5.968,0.49-11.93,1.062-17.821c1.493-15.384,4.613-30.564,9.071-45.356
			c3.551-11.782,8.134-23.131,13.463-34.215c6.516-13.556,14.921-26.202,24.571-37.714c2.428-2.897,5.036-5.635,7.665-8.351
			c2.486-2.568,5.164-5.092,7.919-7.372c4.789-3.962,9.726-7.7,15.076-10.878c-0.46,0.858-0.942,1.705-1.427,2.549
			C303.899,92.113,300.544,97.647,297.398,103.31z"/>
	</g>
	<g>
		<circle style="fill:#F4E84A;" cx="166.244" cy="229.872" r="39.518"/>
		<circle style="fill:#F4E84A;" cx="233.243" cy="229.872" r="39.518"/>
		<circle style="fill:#F4E84A;" cx="300.242" cy="229.872" r="39.518"/>
		<g>
			<path style="fill:#FFFFFF;" d="M327.811,233.935c-2.209,0-4-1.791-4-4c0-13.047-10.615-23.663-23.663-23.663
				c-2.209,0-4-1.791-4-4s1.791-4,4-4c17.459,0,31.663,14.204,31.663,31.663C331.811,232.144,330.02,233.935,327.811,233.935z"/>
			<path style="fill:#FFFFFF;" d="M260.812,233.935c-2.209,0-4-1.791-4-4c0-13.047-10.615-23.663-23.663-23.663
				c-2.209,0-4-1.791-4-4s1.791-4,4-4c17.459,0,31.663,14.204,31.663,31.663C264.812,232.144,263.021,233.935,260.812,233.935z"/>
			<path style="fill:#FFFFFF;" d="M193.813,233.935c-2.209,0-4-1.791-4-4c0-13.047-10.615-23.663-23.663-23.663
				c-2.209,0-4-1.791-4-4s1.791-4,4-4c17.459,0,31.663,14.204,31.663,31.663C197.813,232.144,196.022,233.935,193.813,233.935z"/>
		</g>
	</g>
	<g>
		<path style="fill:#F48438;" d="M138.436,129.739c4.225,7.604,8.225,15.306,12.201,23.042c4.062,7.904,7.78,16.016,11.389,24.135
			c3.657,8.226,7.215,16.511,10.529,24.882c5.332,13.464,10.378,27.04,15.058,40.745c5.807,17.007,11.319,34.104,16.735,51.239
			c0.857,2.712,1.71,5.426,2.563,8.141h13.38c-0.125-7.219-0.593-14.43-1.284-21.556c-1.806-18.608-5.579-36.971-10.972-54.863
			c-4.295-14.251-9.84-27.979-16.284-41.386c-7.882-16.398-18.048-31.695-29.721-45.62c-2.938-3.504-6.092-6.816-9.272-10.101
			c-3.007-3.106-6.246-6.16-9.579-8.917c-5.792-4.793-11.764-9.314-18.237-13.158c0.557,1.038,1.139,2.062,1.726,3.083
			C130.572,116.195,134.63,122.89,138.436,129.739z"/>
		<path style="fill:#F48438;" d="M123.123,281.546c6.533,9.06,12.957,18.193,19.332,27.362h21.805
			c-0.063-0.154-0.125-0.309-0.189-0.463c-7.104-17.169-15.993-33.552-26.29-49.01c-8.188-12.293-17.383-23.763-27.369-34.636
			c-12.42-13.523-26.654-25.386-42.034-35.386c-13.747-8.939-29.025-16.155-44.989-20.068c0.835,0.831,1.69,1.641,2.549,2.447
			c5.712,5.36,11.545,10.582,17.18,16.026c6.256,6.043,12.325,12.243,18.38,18.485c6.266,6.459,12.258,13.222,18.146,20.025
			c5.891,6.805,11.733,13.682,17.311,20.748C105.897,258.403,114.681,269.838,123.123,281.546z"/>
		<path style="fill:#F48438;" d="M328.05,129.739c-4.225,7.604-8.225,15.306-12.201,23.042c-4.062,7.904-7.78,16.016-11.389,24.135
			c-3.657,8.226-7.215,16.511-10.529,24.882c-5.332,13.464-10.378,27.04-15.058,40.745c-5.807,17.007-11.319,34.104-16.735,51.239
			c-0.857,2.712-1.71,5.426-2.563,8.141h-13.38c0.125-7.219,0.593-14.43,1.284-21.556c1.806-18.608,5.579-36.971,10.972-54.863
			c4.295-14.251,9.84-27.979,16.284-41.386c7.882-16.398,18.048-31.695,29.721-45.62c2.938-3.504,6.092-6.816,9.272-10.101
			c3.007-3.106,6.246-6.16,9.579-8.917c5.792-4.793,11.764-9.314,18.237-13.158c-0.557,1.038-1.139,2.062-1.726,3.083
			C335.914,116.195,331.856,122.89,328.05,129.739z"/>
		<path style="fill:#F48438;" d="M343.363,281.546c-6.533,9.06-12.957,18.193-19.332,27.362h-21.805
			c0.063-0.154,0.125-0.309,0.189-0.463c7.104-17.169,15.993-33.552,26.29-49.01c8.188-12.293,17.383-23.763,27.369-34.636
			c12.42-13.523,26.654-25.386,42.034-35.386c13.747-8.939,29.025-16.155,44.989-20.068c-0.835,0.831-1.69,1.641-2.549,2.447
			c-5.712,5.36-11.545,10.582-17.18,16.026c-6.256,6.043-12.325,12.243-18.38,18.485c-6.266,6.459-12.258,13.222-18.146,20.025
			c-5.891,6.805-11.733,13.682-17.31,20.748C360.588,258.403,351.805,269.838,343.363,281.546z"/>
	</g>
	<g>
		<circle style="fill:#46B9CC;" cx="132.744" cy="286.445" r="39.518"/>
		<circle style="fill:#46B9CC;" cx="199.743" cy="286.445" r="39.518"/>
		<circle style="fill:#46B9CC;" cx="266.742" cy="286.445" r="39.518"/>
		<circle style="fill:#46B9CC;" cx="333.742" cy="286.445" r="39.518"/>
		<g>
			<path style="fill:#FFFFFF;" d="M359.953,291.831c-2.209,0-4-1.791-4-4c0-13.047-10.615-23.663-23.663-23.663
				c-2.209,0-4-1.791-4-4s1.791-4,4-4c17.459,0,31.663,14.204,31.663,31.663C363.953,290.04,362.162,291.831,359.953,291.831z"/>
			<path style="fill:#FFFFFF;" d="M292.954,291.831c-2.209,0-4-1.791-4-4c0-13.047-10.615-23.663-23.663-23.663
				c-2.209,0-4-1.791-4-4s1.791-4,4-4c17.459,0,31.663,14.204,31.663,31.663C296.954,290.04,295.163,291.831,292.954,291.831z"/>
			<path style="fill:#FFFFFF;" d="M225.954,291.831c-2.209,0-4-1.791-4-4c0-13.047-10.615-23.663-23.663-23.663
				c-2.209,0-4-1.791-4-4s1.791-4,4-4c17.459,0,31.663,14.204,31.663,31.663C229.954,290.04,228.163,291.831,225.954,291.831z"/>
			<path style="fill:#FFFFFF;" d="M158.955,291.831c-2.209,0-4-1.791-4-4c0-13.047-10.615-23.663-23.663-23.663
				c-2.209,0-4-1.791-4-4s1.791-4,4-4c17.459,0,31.663,14.204,31.663,31.663C162.955,290.04,161.164,291.831,158.955,291.831z"/>
		</g>
	</g>
	<g>
		<path style="fill:#F2D24C;" d="M124.685,156.164c4.396,7.911,8.557,15.924,12.693,23.972c4.226,8.223,8.094,16.662,11.849,25.109
			c3.804,8.558,7.506,17.178,10.954,25.886c5.547,14.007,10.797,28.131,15.666,42.389c6.042,17.693,11.775,35.481,17.411,53.307
			c0.892,2.822,1.779,5.646,2.666,8.469h13.92c-0.13-7.511-0.617-15.013-1.336-22.426c-1.879-19.359-5.805-38.463-11.415-57.077
			c-4.468-14.826-10.237-29.108-16.942-43.057c-8.2-17.06-18.777-32.974-30.921-47.461c-3.056-3.645-6.338-7.092-9.646-10.509
			c-3.128-3.232-6.498-6.408-9.965-9.277c-6.026-4.986-12.239-9.69-18.973-13.689c0.579,1.08,1.185,2.145,1.795,3.207
			C116.504,142.073,120.726,149.038,124.685,156.164z"/>
		<path style="fill:#F2D24C;" d="M341.8,156.164c-4.396,7.911-8.557,15.924-12.693,23.972c-4.226,8.223-8.094,16.662-11.849,25.109
			c-3.804,8.558-7.506,17.178-10.954,25.886c-5.547,14.007-10.797,28.131-15.666,42.389c-6.042,17.693-11.775,35.481-17.411,53.307
			c-0.892,2.822-1.779,5.646-2.666,8.469h-13.92c0.13-7.511,0.617-15.013,1.336-22.426c1.879-19.359,5.805-38.463,11.415-57.077
			c4.468-14.826,10.237-29.108,16.942-43.057c8.2-17.06,18.777-32.974,30.921-47.461c3.056-3.645,6.338-7.092,9.646-10.509
			c3.128-3.232,6.498-6.408,9.965-9.277c6.026-4.986,12.239-9.69,18.973-13.689c-0.579,1.08-1.185,2.145-1.795,3.207
			C349.982,142.073,345.76,149.038,341.8,156.164z"/>
	</g>
	<g>
		<path style="fill:#F2D24C;" d="M103.758,314.097c6.796,9.426,13.48,18.928,20.112,28.466h22.686
			c-0.066-0.16-0.131-0.322-0.197-0.482c-7.39-17.862-16.638-34.906-27.351-50.988c-8.519-12.789-18.085-24.722-28.474-36.034
			c-12.921-14.069-27.729-26.41-43.73-36.814C32.503,208.947,16.608,201.439,0,197.368c0.869,0.864,1.758,1.707,2.652,2.545
			c5.943,5.576,12.011,11.009,17.874,16.673c6.508,6.286,12.822,12.738,19.121,19.231c6.518,6.72,12.752,13.756,18.878,20.833
			c6.128,7.08,12.206,14.234,18.009,21.585C85.837,290.02,94.975,301.917,103.758,314.097z"/>
		<path style="fill:#F2D24C;" d="M362.728,314.097c-6.796,9.426-13.48,18.928-20.112,28.466H319.93
			c0.066-0.16,0.131-0.322,0.197-0.482c7.39-17.862,16.638-34.906,27.351-50.988c8.519-12.789,18.085-24.722,28.474-36.034
			c12.921-14.069,27.729-26.41,43.73-36.814c14.302-9.299,30.197-16.807,46.805-20.878c-0.869,0.864-1.758,1.707-2.652,2.545
			c-5.943,5.576-12.011,11.009-17.874,16.673c-6.508,6.286-12.822,12.738-19.121,19.231c-6.518,6.72-12.752,13.756-18.878,20.833
			c-6.128,7.08-12.206,14.234-18.009,21.585C380.648,290.02,371.51,301.917,362.728,314.097z"/>
	</g>
	<g>
		<circle style="fill:#F48438;" cx="99.245" cy="343.018" r="39.518"/>
		<circle style="fill:#F48438;" cx="166.244" cy="343.018" r="39.518"/>
		<circle style="fill:#F48438;" cx="233.243" cy="343.018" r="39.518"/>
		<circle style="fill:#F48438;" cx="300.242" cy="343.018" r="39.518"/>
		<circle style="fill:#F48438;" cx="367.241" cy="343.018" r="39.518"/>
		<path style="fill:#FFFFFF;" d="M126.907,347.018c-2.209,0-4-1.791-4-4c0-13.047-10.615-23.663-23.663-23.663c-2.209,0-4-1.791-4-4
			s1.791-4,4-4c17.459,0,31.663,14.204,31.663,31.663C130.907,345.227,129.116,347.018,126.907,347.018z"/>
		<path style="fill:#FFFFFF;" d="M394.904,347.018c-2.209,0-4-1.791-4-4c0-13.047-10.615-23.663-23.663-23.663c-2.209,0-4-1.791-4-4
			s1.791-4,4-4c17.459,0,31.663,14.204,31.663,31.663C398.904,345.227,397.113,347.018,394.904,347.018z"/>
		<path style="fill:#FFFFFF;" d="M327.905,347.018c-2.209,0-4-1.791-4-4c0-13.047-10.615-23.663-23.663-23.663c-2.209,0-4-1.791-4-4
			s1.791-4,4-4c17.459,0,31.663,14.204,31.663,31.663C331.905,345.227,330.114,347.018,327.905,347.018z"/>
		<path style="fill:#FFFFFF;" d="M260.905,347.018c-2.209,0-4-1.791-4-4c0-13.047-10.615-23.663-23.662-23.663c-2.209,0-4-1.791-4-4
			s1.791-4,4-4c17.459,0,31.662,14.204,31.662,31.663C264.905,345.227,263.114,347.018,260.905,347.018z"/>
		<path style="fill:#FFFFFF;" d="M193.907,347.018c-2.209,0-4-1.791-4-4c0-13.047-10.615-23.663-23.663-23.663c-2.209,0-4-1.791-4-4
			s1.791-4,4-4c17.459,0,31.663,14.204,31.663,31.663C197.907,345.227,196.116,347.018,193.907,347.018z"/>
	</g>
</g>
<g>
</g>
<g>
</g>
<g>
</g>
<g>
</g>
<g>
</g>
<g>
</g>
<g>
</g>
<g>
</g>
<g>
</g>
<g>
</g>
<g>
</g>
<g>
</g>
<g>
</g>
<g>
</g>
<g>
</g>
</svg>
